<?xml version="1.0" encoding="UTF-8"?>
<svg xmlns="http://www.w3.org/2000/svg" xmlns:xlink="http://www.w3.org/1999/xlink" width="200pt" height="200pt" viewBox="0 0 200 200" version="1.1">
<g id="surface1">
<path style=" stroke:none;fill-rule:nonzero;fill:hsl(0, 0%, 60%);fill-opacity:1;" d="M 87.691406 8.792969 C 81.386719 10.113281 76.074219 13.769531 72.15625 18.328125 C 69.089844 21.894531 66.746094 26.136719 65.511719 30.804688 C 64.269531 35.480469 64.175781 40.488281 65.449219 45.28125 C 67.363281 52.46875 72.253906 58.621094 78.921875 62.023438 C 82.300781 63.746094 85.820312 63.964844 89.296875 64.375 C 80.785156 69.085938 71.347656 72.742188 61.644531 75.703125 C 48.324219 79.773438 34.703125 82.332031 21.019531 85.246094 C 21.019531 85.246094 16.164062 86.515625 16.75 91.066406 C 17.535156 97.160156 22.882812 96.25 22.882812 96.25 C 37.070312 93.820312 51.105469 90.492188 64.871094 86.285156 C 80.203125 81.605469 96.003906 75.128906 108.746094 64.195312 C 116.878906 63.371094 125.199219 62.785156 133.6875 61.394531 C 150.457031 58.652344 166.722656 52.941406 181.519531 44.59375 C 181.519531 44.59375 184.601562 41.804688 182.664062 37.957031 C 180.640625 33.929688 176.078125 34.949219 176.078125 34.949219 C 162.421875 42.652344 147.378906 47.941406 131.90625 50.472656 C 127.917969 51.125 123.640625 51.4375 119.507812 51.859375 C 121.042969 49.574219 122.875 47.617188 123.875 44.875 C 125.734375 39.761719 126.292969 33.859375 124.3125 28.222656 C 123.011719 24.519531 120.777344 21.421875 118.203125 18.914062 C 115.644531 16.421875 112.785156 14.539062 109.945312 12.996094 C 106.792969 11.289062 103.34375 9.832031 99.582031 8.992188 C 95.804688 8.148438 91.742188 7.941406 87.691406 8.792969 Z M 89.964844 19.625 C 92.1875 19.15625 94.6875 19.238281 97.167969 19.792969 C 99.660156 20.351562 102.175781 21.386719 104.660156 22.730469 C 106.902344 23.949219 108.894531 25.304688 110.480469 26.847656 C 112.050781 28.378906 113.242188 30.132812 113.859375 31.890625 C 114.792969 34.546875 114.617188 37.9375 113.46875 41.085938 C 112.300781 44.296875 110.164062 47.421875 107.53125 50.402344 C 106.507812 51.5625 104.824219 52.671875 103.371094 53.179688 C 100.109375 54.328125 96.945312 54.332031 93.75 54.269531 C 90.101562 54.199219 86.683594 53.558594 83.957031 52.167969 C 80.238281 50.269531 77.238281 46.515625 76.152344 42.433594 C 75.410156 39.648438 75.441406 36.546875 76.210938 33.644531 C 76.984375 30.730469 78.503906 27.921875 80.546875 25.542969 C 83.121094 22.546875 86.519531 20.34375 89.964844 19.625 Z M 89.964844 19.625 "/>
<path style=" stroke:none;fill-rule:nonzero;fill:hsl(0, 0%, 60%);fill-opacity:1;" d="M 99.816406 54.167969 L 96.246094 64.652344 C 101.988281 66.605469 107.261719 70.09375 111.304688 74.617188 C 117.839844 81.925781 121.324219 92.113281 122.074219 102.488281 C 123.390625 120.605469 116.46875 139.433594 103.582031 152.148438 C 96.085938 159.546875 86.605469 165.082031 76.457031 169.21875 C 67.738281 172.773438 58.488281 175.351562 49.027344 177.679688 C 47.460938 178.0625 45.886719 178.449219 44.3125 178.824219 C 41.304688 179.542969 38.292969 180.238281 35.273438 180.925781 C 35.273438 180.925781 30.28125 182.839844 31.664062 187.898438 C 32.886719 192.359375 37.746094 191.71875 37.746094 191.71875 C 40.796875 191.023438 43.839844 190.3125 46.882812 189.585938 C 48.476562 189.207031 50.066406 188.824219 51.667969 188.429688 C 61.339844 186.050781 71.117188 183.351562 80.632812 179.472656 C 91.738281 174.945312 102.511719 168.757812 111.355469 160.03125 C 126.683594 144.902344 134.671875 123.113281 133.117188 101.6875 C 132.226562 89.410156 128.15625 76.851562 119.554688 67.230469 C 114.222656 61.265625 107.390625 56.742188 99.816406 54.167969 Z M 99.816406 54.167969 "/>
</g>
</svg>
